<svg xmlns="http://www.w3.org/2000/svg" height="1rem" style="isolation:isolate" viewBox="-680 -1030 300 180"><style>path{fill:#fff}</style><path d="M-430-910c6 0 10 4 10 10s-4 10-10 10-10-4-10-10 4-10 10-10ZM-570-910h60c6 0 10 4 10 10s-4 10-10 10h-60c-6 0-10-4-10-10s4-10 10-10ZM-590-970c6 0 10 4 10 10v20c0 6-4 10-10 10s-10-4-10-10v-20c0-6 4-10 10-10Z"/><path d="M-640-961c0-16 14-29 30-29 8 0 15 3 20 8 5-5 12-8 20-8a30 30 0 0 1 30 30v20c0 6-4 10-10 10s-10-4-10-10v-20a10 10 0 0 0-20 0v20c0 6-4 10-10 10s-10-4-10-10v-20a10 10 0 0 0-20 0v20c0 6-4 10-10 10s-10-4-10-10v-21ZM-460-930v30c0 6-4 10-10 10s-10-4-10-10v-30h-29c-6 0-11-4-11-10s5-10 11-10h78c6 0 11 4 11 10s-5 10-11 10h-29ZM-470-990h40c6 0 10 4 10 10s-4 10-10 10h-40c-6 0-10-4-10-10s4-10 10-10ZM-630-910h20c6 0 10 4 10 10s-4 10-10 10h-20c-6 0-10-4-10-10s4-10 10-10ZM-515-990h5c6 0 10 4 10 10s-4 10-10 10h-5c-6 0-10-4-10-10s4-10 10-10Z"/><path d="M-660-910h-20v-70c0-28 22-50 50-50h200c28 0 50 22 50 50v80c0 28-22 50-50 50h-200c-28 0-50-22-50-50v-20h20v20c0 17 13 30 30 30h200c17 0 30-13 30-30v-80c0-17-13-30-30-30h-200c-17 0-30 13-30 30v70Z"/></svg>
