<?xml version="1.0" encoding="UTF-8" standalone="no"?>
<!DOCTYPE svg PUBLIC "-//W3C//DTD SVG 20010904//EN"
              "http://www.w3.org/TR/2001/REC-SVG-20010904/DTD/svg10.dtd">

<svg xmlns="http://www.w3.org/2000/svg"
     width="1rem" height="1rem"
     viewBox="0 0 295 295">
  <path id=""
        fill="white" stroke="none" stroke-width="1"
        d="M 16.00,105.00
           C 16.00,105.00 16.00,48.00 16.00,48.00
             16.00,48.00 16.60,41.00 16.60,41.00
             16.60,41.00 34.00,20.00 34.00,20.00
             34.00,20.00 44.42,8.00 44.42,8.00
             44.42,8.00 51.00,3.03 51.00,3.03
             51.00,3.03 58.00,7.00 58.00,7.00
             58.00,7.00 71.00,18.42 71.00,18.42
             71.00,18.42 86.00,31.93 86.00,31.93
             86.00,31.93 93.98,40.01 93.98,40.01
             93.98,40.01 95.00,47.00 95.00,47.00
             95.00,47.00 95.00,98.00 95.00,98.00
             97.71,98.00 102.37,98.43 104.40,96.40
             107.13,93.67 105.49,87.42 104.95,84.00
             104.95,84.00 104.95,55.00 104.95,55.00
             104.95,55.00 104.95,43.09 104.95,43.09
             105.49,40.59 109.07,37.81 111.00,35.97
             111.00,35.97 130.00,18.83 130.00,18.83
             132.82,16.30 141.47,7.27 145.00,7.34
             147.76,7.38 154.70,14.11 157.00,16.16
             157.00,16.16 174.04,31.28 174.04,31.28
             176.45,33.39 181.61,37.41 182.98,40.04
             184.19,42.36 183.99,45.43 184.00,48.00
             184.00,48.00 185.00,91.00 185.00,91.00
             187.76,90.78 195.56,90.25 197.40,88.40
             199.32,86.47 198.99,82.54 199.00,80.00
             199.00,80.00 199.83,53.00 199.83,53.00
             200.05,50.69 199.82,47.05 200.60,45.04
             201.85,41.79 211.00,34.18 214.00,31.58
             221.48,25.09 237.25,8.59 245.00,5.00
             245.00,5.00 268.18,30.09 268.18,30.09
             275.11,37.35 279.26,38.51 278.97,48.96
             278.97,48.96 278.00,62.00 278.00,62.00
             278.00,62.00 278.00,83.00 278.00,83.00
             278.00,83.00 289.00,82.00 289.00,82.00
             289.00,82.00 292.00,111.00 292.00,111.00
             292.00,111.00 258.00,113.83 258.00,113.83
             258.00,113.83 190.00,119.83 190.00,119.83
             190.00,119.83 158.00,122.09 158.00,122.09
             158.00,122.09 131.00,124.83 131.00,124.83
             131.00,124.83 105.00,126.83 105.00,126.83
             105.00,126.83 75.00,129.28 75.00,129.28
             75.00,129.28 51.00,131.17 51.00,131.17
             51.00,131.17 22.00,133.97 22.00,133.97
             18.38,134.14 7.02,135.90 4.60,133.97
             2.82,132.57 2.98,129.11 2.72,127.00
             2.72,127.00 1.00,106.00 1.00,106.00
             1.00,106.00 16.00,105.00 16.00,105.00 Z
           M 198.00,130.00
           C 198.00,130.00 235.00,127.09 235.00,127.09
             239.00,127.34 251.47,130.99 256.00,132.29
             259.53,133.31 272.16,136.24 274.01,138.70
             275.26,140.37 275.00,143.96 275.00,146.00
             275.00,146.00 274.00,186.00 274.00,186.00
             274.00,186.00 273.02,203.00 273.02,203.00
             273.38,211.80 277.70,209.26 293.00,212.00
             293.00,212.00 290.00,240.00 290.00,240.00
             290.00,240.00 216.00,232.17 216.00,232.17
             216.00,232.17 68.00,215.84 68.00,215.84
             68.00,215.84 3.00,209.00 3.00,209.00
             3.00,209.00 4.83,189.00 4.83,189.00
             4.83,189.00 6.74,181.00 6.74,181.00
             6.74,181.00 17.00,181.00 17.00,181.00
             17.00,181.00 17.00,148.00 17.00,148.00
             17.00,148.00 38.00,147.00 38.00,147.00
             38.00,147.00 78.00,146.00 78.00,146.00
             78.00,146.00 95.00,145.00 95.00,145.00
             95.00,145.00 95.00,173.00 95.00,173.00
             95.00,173.00 96.00,190.00 96.00,190.00
             96.00,190.00 108.00,191.00 108.00,191.00
             108.00,191.00 108.00,160.00 108.00,160.00
             107.96,156.86 106.33,149.98 108.60,147.98
             110.54,146.28 126.44,143.36 130.00,142.58
             130.00,142.58 186.00,131.00 186.00,131.00
             186.00,131.00 187.00,151.00 187.00,151.00
             187.00,151.00 188.00,200.00 188.00,200.00
             188.00,200.00 195.00,201.00 195.00,201.00
             195.00,201.00 196.00,186.00 196.00,186.00
             196.00,186.00 197.00,169.00 197.00,169.00
             197.00,169.00 198.00,130.00 198.00,130.00 Z
           M 18.00,234.00
           C 18.00,234.00 56.00,230.91 56.00,230.91
             73.02,229.75 78.07,227.64 96.00,230.00
             96.00,230.00 96.00,294.00 96.00,294.00
             96.00,294.00 61.00,293.00 61.00,293.00
             61.00,293.00 18.00,292.00 18.00,292.00
             18.00,292.00 18.00,234.00 18.00,234.00 Z
           M 110.00,241.00
           C 110.00,241.00 152.00,241.00 152.00,241.00
             152.00,241.00 167.00,240.00 167.00,240.00
             167.00,240.00 189.00,240.00 189.00,240.00
             189.00,240.00 190.00,256.00 190.00,256.00
             190.00,256.00 190.00,285.00 190.00,285.00
             190.00,285.00 141.00,284.00 141.00,284.00
             141.00,284.00 126.00,283.00 126.00,283.00
             126.00,283.00 111.00,283.00 111.00,283.00
             111.00,283.00 110.00,263.00 110.00,263.00
             110.00,263.00 110.00,241.00 110.00,241.00 Z
           M 194.00,256.00
           C 194.00,256.00 243.00,246.61 243.00,246.61
             243.00,246.61 271.00,249.00 271.00,249.00
             271.00,249.00 271.00,267.00 271.00,267.00
             271.00,267.00 270.00,288.00 270.00,288.00
             270.00,288.00 248.00,289.00 248.00,289.00
             248.00,289.00 237.00,289.91 237.00,289.91
             237.00,289.91 202.00,292.09 202.00,292.09
             202.00,292.09 193.00,293.00 193.00,293.00
             193.00,293.00 194.00,256.00 194.00,256.00 Z
           M 190.25,149.00" />
</svg>
