<svg xmlns="http://www.w3.org/2000/svg" width="1rem" height="1rem" viewBox="0 0 295 295"><path fill="#fff" d="M16 105V48l.6-7L34 20 44.42 8 51 3.03 58 7l13 11.42 15 13.51 7.98 8.08L95 47v51c2.71 0 7.37.43 9.4-1.6 2.73-2.73 1.09-8.98.55-12.4V43.09c.54-2.5 4.12-5.28 6.05-7.12l19-17.14c2.82-2.53 11.47-11.56 15-11.49 2.76.04 9.7 6.77 12 8.82l17.04 15.12c2.41 2.11 7.57 6.13 8.94 8.76 1.21 2.32 1.01 5.39 1.02 7.96l1 43c2.76-.22 10.56-.75 12.4-2.6 1.92-1.93 1.59-5.86 1.6-8.4l.83-27c.22-2.31-.01-5.95.77-7.96 1.25-3.25 10.4-10.86 13.4-13.46 7.48-6.49 23.25-22.99 31-26.58l23.18 25.09c6.93 7.26 11.08 8.42 10.79 18.87L278 62v21l11-1 3 29-34 2.83-68 6-32 2.26-27 2.74-26 2-30 2.45-24 1.89-29 2.8c-3.62.17-14.98 1.93-17.4 0-1.78-1.4-1.62-4.86-1.88-6.97L1 106l15-1Zm182 25 37-2.91c4 .25 16.47 3.9 21 5.2 3.53 1.02 16.16 3.95 18.01 6.41 1.25 1.67.99 5.26.99 7.3l-1 40-.98 17c.36 8.8 4.68 6.26 19.98 9l-3 28-74-7.83-148-16.33L3 209l1.83-20 1.91-8H17v-33l21-1 40-1 17-1v28l1 17 12 1v-31c-.04-3.14-1.67-10.02.6-12.02 1.94-1.7 17.84-4.62 21.4-5.4L186 131l1 20 1 49 7 1 1-15 1-17 1-39ZM18 234l38-3.09c17.02-1.16 22.07-3.27 40-.91v64l-35-1-43-1v-58Zm92 7h42l15-1h22l1 16v29l-49-1-15-1h-15l-1-20v-22Zm84 15 49-9.39 28 2.39v18l-1 21-22 1-11 .91-35 2.18-9 .91 1-37Zm-3.75-107"/></svg>
